{"title":"The Simpsons Season 1 (1989-90) DVD RIP","uid":11955082,"size":3171985252,"categoryP":"video","categoryS":"tv_shows","magnet":"?xt=urn:btih:c5629273ee74e5fe7803ce803cdeb751b2eea5c0&amp;dn=The+Simpsons+Season+1+%281989-90%29+DVD+RIP&amp;tr=udp%3A%2F%2Ftracker.openbittorrent.com%3A80&amp;tr=udp%3A%2F%2Fopen.demonii.com%3A1337&amp;tr=udp%3A%2F%2Ftracker.coppersurfer.tk%3A6969&amp;tr=udp%3A%2F%2Fexodus.desync.com%3A6969","seeders":1,"leechers":0,"uploader":"jmanwf","files":13,"time":1432371474,"description":"Storyline\n\nThe Simpsons is an animated sitcom about the antics of a dysfunctional family called the Simpsons (surprise surprise). Homer is the oafish unhealthy beer loving father, Marge is the hardworking homemaker wife, Bart is the ten year old underachiever (and proud of it), Lisa is the unappreciated eight year old genius, and Maggie is the cute, pacifier loving silent infant\n\n\n\n\n\nALL 13 Episodes of Season 1\n\n\n\nALL In MP4\n\n\n\nALL Have English Subtitles\n\n\n\nALL Have Directors Commentary\n\n\nFormat : MPEG-4\nFormat profile : Base Media / Version 2\nCodec ID : mp42\nFile size : 209 MiB\nDuration : 21mn 50s\nOverall bit rate mode : Variable\nOverall bit rate : 1 339 Kbps\nWriting application : HandBrake 0.10.1 2015030800\n\nVideo\nID : 1\nFormat : AVC\nFormat/Info : Advanced Video Codec\nFormat profile : &lt;a class=&quot;__cf_email__&quot; href=&quot;/cdn-cgi/l/email-protection&quot; data-cfemail=&quot;317c50585f717d051f00&quot;&gt;[email&amp;#160;protected]&lt;/a&gt;&lt;script data-cfhash='f9e31' type=&quot;text/javascript&quot;&gt;\n/* &lt;![CDATA[ */!function(){try{var t=&quot;currentScript&quot;in document?document.currentScript:function(){for(var t=document.getElementsByTagName(&quot;script&quot;),e=t.length;e--;)if(t[e].getAttribute(&quot;data-cfhash&quot;))return t[e]}();if(t&amp;&amp;t.previousSibling){var e,r,n,i,c=t.previousSibling,a=c.getAttribute(&quot;data-cfemail&quot;);if(a){for(e=&quot;&quot;,r=parseInt(a.substr(0,2),16),n=2;a.length-n;n+=2)i=parseInt(a.substr(n,2),16)^r,e+=String.fromCharCode(i);e=document.createTextNode(e),c.parentNode.replaceChild(e,c)}t.parentNode.removeChild(t);}}catch(u){}}()/* ]]&gt; */&lt;/script&gt;\nFormat settings, CABAC : Yes\nFormat settings, ReFrames : 4 frames\nCodec ID : avc1\nCodec ID/Info : Advanced Video Coding\nDuration : 21mn 50s\nBit rate : 850 Kbps\nWidth : 628 pixels\nHeight : 478 pixels\nDisplay aspect ratio : 4:3\nFrame rate mode : Variable\nFrame rate : 25.000 fps\nMinimum frame rate : 12.500 fps\nMaximum frame rate : 25.000 fps\nColor space : YUV\nChroma subsampling : 4:2:0\nBit depth : 8 bits\nScan type : Progressive\nBits/(Pixel*Frame) : 0.113\nStream size : 133 MiB (63%)\nWriting library : x264 core 142 r2479 dd79a61\n\nColor range : Limited\nColor primaries : BT.601 PAL\nTransfer characteristics : BT.709\nMatrix coefficients : BT.601\n\nAudio #1\nID : 2\nFormat : AC-3\nFormat/Info : Audio Coding 3\nMode extension : CM (complete main)\nFormat settings, Endianness : Big\nCodec ID : ac-3\nDuration : 21mn 50s\nBit rate mode : Constant\nBit rate : 384 Kbps\nChannel(s) : 6 channels\nChannel positions : Front: L C R, Side: L R, LFE\nSampling rate : 48.0 KHz\nBit depth : 16 bits\nCompression mode : Lossy\nStream size : 60.0 MiB (29%)\nTitle : Surround / Surround\nLanguage : English\n\nAudio #2\nID : 3\nFormat : AC-3\nFormat/Info : Audio Coding 3\nFormat profile : Dolby Digital\nMode extension : CM (complete main)\nFormat settings, Endianness : Big\nCodec ID : ac-3\nDuration : 21mn 50s\nBit rate mode : Constant\nBit rate : 96.0 Kbps\nChannel(s) : 2 channels\nChannel positions : Front: L R\nSampling rate : 48.0 KHz\nBit depth : 16 bits\nCompression mode : Lossy\nStream size : 15.0 MiB (7%)\nTitle : Stereo / Stereo\nLanguage : English\n\nText\nID : 4\nFormat : mp4s\nCodec ID : E0\nDuration : 21mn 41s\nBit rate mode : Variable\nBit rate : 4 102 bps\nStream size : 652 KiB (0%)\nLanguage : English","torrent":{"xt":"urn:btih:c5629273ee74e5fe7803ce803cdeb751b2eea5c0","amp;dn":"The+Simpsons+Season+1+%281989-90%29+DVD+RIP","amp;tr":["udp%3A%2F%2Ftracker.openbittorrent.com%3A80","udp%3A%2F%2Fopen.demonii.com%3A1337","udp%3A%2F%2Ftracker.coppersurfer.tk%3A6969","udp%3A%2F%2Fexodus.desync.com%3A6969"],"infoHash":"c5629273ee74e5fe7803ce803cdeb751b2eea5c0","infoHashBuffer":{"type":"Buffer","data":[197,98,146,115,238,116,229,254,120,3,206,128,60,222,183,81,178,238,165,192]},"announce":[],"urlList":[]}}